<?xml version="1.0" encoding="UTF-8"?>
<!DOCTYPE svg PUBLIC "-//W3C//DTD SVG 1.1//EN" "http://www.w3.org/Graphics/SVG/1.1/DTD/svg11.dtd">
<svg version="1.1" xmlns="http://www.w3.org/2000/svg" xmlns:xlink="http://www.w3.org/1999/xlink" x="0px" y="0px" width="308.238" height="79.026" viewBox="0, 0, 308.238, 79.026">
  <g id="Layer 1">
    <path d="M39.579,37.602 L33.312,37.602 C31.932,37.602 31.185,38.296 30.783,39.568 L24.113,62.874 C23.538,64.783 23.136,66.459 22.733,68.31 L21.698,68.31 C21.296,66.517 20.893,64.783 20.376,62.932 L13.649,39.568 C13.246,38.296 12.556,37.602 11.234,37.602 L4.852,37.602 C3.357,37.602 2.552,38.47 2.495,39.973 L1,77.505 L6.692,77.505 L8.014,42.402 L9.107,42.402 L17.214,70.797 C17.558,72.127 18.421,72.763 19.743,72.763 L24.745,72.763 C26.068,72.763 26.873,72.127 27.218,70.797 L35.267,42.402 L36.417,42.402 L37.797,77.505 L43.546,77.505 L41.936,39.973 C41.879,38.47 41.074,37.602 39.579,37.602" fill="#D1282C"/>
    <path d="M62.34,60.445 L66.997,45.293 L67.917,42.055 L69.469,42.055 C69.757,43.096 70.159,44.252 70.447,45.293 L75.104,60.445 L62.34,60.445 z M71.654,37.602 L65.789,37.602 C64.755,37.602 63.95,38.181 63.662,39.163 L51.243,77.505 L57.108,77.505 L60.787,65.476 L76.599,65.476 L80.279,77.505 L86.2,77.505 L73.724,39.163 C73.494,38.181 72.632,37.602 71.654,37.602" fill="#D1282C"/>
    <path d="M120.059,65.65 C120.059,67.732 120.174,69.756 120.347,71.838 L119.485,71.838 C118.621,69.814 117.472,67.5 116.725,65.881 L104.708,39.395 C104.133,38.181 103.444,37.602 102.178,37.602 L96.889,37.602 C95.509,37.602 94.703,38.354 94.703,39.857 L94.703,77.505 L100.453,77.505 L100.453,48.532 C100.453,46.739 100.396,44.831 100.166,42.98 L100.971,42.98 C101.431,44.657 102.638,47.028 103.328,48.532 L115.69,75.712 C116.207,76.927 116.897,77.505 118.162,77.505 L123.624,77.505 C125.004,77.505 125.751,76.753 125.751,75.25 L125.751,37.602 L120.059,37.602 L120.059,65.65" fill="#D1282C"/>
    <path d="M152.882,72.994 C149.662,72.994 146.788,72.936 144.316,72.821 L144.316,42.171 C146.846,42.171 149.606,42.113 152.882,42.113 C160.127,42.113 162.485,45.929 162.485,57.554 C162.485,69.178 160.127,72.994 152.882,72.994 z M152.882,37.081 C147.305,37.081 142.763,37.313 138.567,37.602 L138.567,77.505 C142.763,77.794 147.363,78.026 152.882,78.026 C164.439,78.026 168.578,73.052 168.578,57.554 C168.578,42.055 164.439,37.081 152.882,37.081" fill="#D1282C"/>
    <path d="M186.455,60.445 L191.113,45.293 L192.033,42.055 L193.584,42.055 C193.872,43.096 194.275,44.252 194.562,45.293 L199.219,60.445 L186.455,60.445 z M195.77,37.602 L189.905,37.602 C188.869,37.602 188.065,38.181 187.778,39.163 L175.359,77.505 L181.223,77.505 L184.903,65.476 L200.714,65.476 L204.394,77.505 L210.316,77.505 L197.839,39.163 C197.61,38.181 196.746,37.602 195.77,37.602" fill="#D1282C"/>
    <path d="M232.561,56.108 L224.511,56.108 L224.511,42.113 C226.696,42.055 229.455,42.055 232.561,42.055 C238.137,42.055 239.977,43.501 239.977,48.994 C239.977,54.489 238.137,56.05 232.561,56.108 z M238.483,59.115 L238.483,58.826 C243.772,58.132 245.784,54.951 245.784,48.648 C245.784,39.684 241.99,37.081 232.675,37.081 C226.178,37.081 223.189,37.139 218.819,37.602 L218.819,77.505 L224.511,77.505 L224.511,61.023 L232.675,61.081 C235.205,61.081 236.758,62.18 237.678,65.072 L241.07,77.505 L247.222,77.505 L243.485,64.898 C242.622,61.428 240.438,59.693 238.483,59.115" fill="#D1282C"/>
    <path d="M257.623,37.602 L263.372,37.602 L263.372,77.505 L257.623,77.505 z" fill="#D1282C"/>
    <path d="M301.545,37.602 L301.545,65.65 C301.545,67.732 301.66,69.756 301.833,71.838 L300.971,71.838 C300.108,69.814 298.958,67.5 298.211,65.881 L286.195,39.395 C285.619,38.181 284.93,37.602 283.664,37.602 L278.375,37.602 C276.995,37.602 276.19,38.354 276.19,39.857 L276.19,77.505 L281.94,77.505 L281.94,48.532 C281.94,46.739 281.882,44.831 281.653,42.98 L282.457,42.98 C282.917,44.657 284.124,47.028 284.815,48.532 L297.176,75.712 C297.694,76.927 298.383,77.505 299.649,77.505 L305.111,77.505 C306.491,77.505 307.238,76.753 307.238,75.25 L307.238,37.602 L301.545,37.602" fill="#D1282C"/>
    <path d="M6.333,3.993 C7.632,3.958 9.239,3.958 11.05,3.958 C14.331,3.958 15.391,4.887 15.391,8.498 C15.391,12.109 14.331,13.038 11.05,13.073 L6.333,13.073 L6.333,3.993 z M6.333,15.72 C7.803,15.893 9.615,16.03 11.529,16.03 C16.929,16.03 18.843,14.414 18.843,8.498 C18.843,2.651 16.929,1 11.118,1 C7.256,1 5.513,1.035 2.915,1.31 L2.915,25.041 L6.333,25.041 L6.333,15.72" fill="#D1282C"/>
    <path d="M30.637,5.884 L31.183,3.958 L32.106,3.958 C32.277,4.577 32.516,5.265 32.687,5.884 L35.456,14.895 L27.868,14.895 L30.637,5.884 z M26.945,17.887 L36.345,17.887 L38.532,25.041 L42.053,25.041 L34.636,2.239 C34.499,1.654 33.986,1.31 33.405,1.31 L29.919,1.31 C29.304,1.31 28.825,1.654 28.654,2.239 L21.271,25.041 L24.758,25.041 L26.945,17.887" fill="#D1282C"/>
    <path d="M53.88,25.041 L53.88,16.821 L61.639,1.31 L58.084,1.31 L53.333,11.077 C52.923,11.903 52.616,12.901 52.308,13.795 L52.069,13.795 C51.761,12.901 51.453,11.903 51.043,11.043 L46.292,1.31 L42.669,1.31 L50.462,16.787 L50.462,25.041 L53.88,25.041" fill="#D1282C"/>
  </g>
  <defs/>
</svg>
